<svg width="75" height="24" viewBox="0 0 75 24" fill="none" xmlns="http://www.w3.org/2000/svg">
<g clip-path="url(#clip0_2147_9)">
<path d="M8.10268 13.5994C7.64564 13.5994 7.25377 13.8131 6.93736 14.2495C6.62096 14.6859 6.46533 15.2142 6.46533 15.8433C6.46533 16.4723 6.62611 17.0109 6.93736 17.4427C7.24861 17.8744 7.64049 18.0938 8.10268 18.0938C8.52924 18.0938 8.89955 17.8753 9.21268 17.4436C9.5258 17.0119 9.68471 16.4789 9.68471 15.8442C9.68471 15.2095 9.52393 14.6813 9.21268 14.2505C8.90143 13.8197 8.53111 13.5994 8.10268 13.5994ZM15.9524 13.5994C15.5005 13.5994 15.1035 13.8131 14.7871 14.2495C14.4706 14.6859 14.315 15.2142 14.315 15.8433C14.315 16.4723 14.4758 17.0109 14.7871 17.4427C15.0983 17.8744 15.4953 18.0938 15.9524 18.0938C16.3794 18.0938 16.7492 17.8753 17.0675 17.4436C17.3858 17.0119 17.5396 16.4789 17.5396 15.8442C17.5396 15.2095 17.3788 14.6813 17.0675 14.2505C16.7563 13.8197 16.3846 13.5994 15.9524 13.5994Z" fill="#018A4A"/>
<path d="M21.5325 7.73438C21.5273 7.73438 21.668 7.00828 21.5475 5.74359C21.4369 4.47797 21.1725 3.31641 20.7389 2.25C20.7389 2.25 20.5177 2.29078 20.0958 2.39719C19.6739 2.50359 18.9844 2.71875 18.0417 3.14906C17.1127 3.58031 16.1334 4.15406 15.1139 4.85016C14.4206 4.65188 13.3861 4.55063 12 4.55063C10.6791 4.55063 9.64453 4.65188 8.88609 4.85016C6.64641 3.28078 4.76969 2.41406 3.25594 2.25C2.82437 3.31656 2.55656 4.48453 2.4525 5.75391C2.33203 7.01953 2.47266 7.74984 2.47266 7.74984C1.25203 9.08531 0.75 11.01 0.75 12.5991C0.75 13.8281 0.785156 14.94 1.05656 15.9272C1.33781 16.9073 1.69406 17.7084 2.11594 18.3244C2.55243 18.9472 3.08869 19.4938 3.70312 19.942C4.33078 20.4145 4.90828 20.7548 5.43094 20.9681C5.95828 21.1913 6.55594 21.3539 7.23891 21.4706C7.74507 21.5686 8.25659 21.6365 8.77078 21.6741C8.77078 21.6741 10.177 21.75 12.0052 21.75C13.8333 21.75 15.2344 21.6741 15.2344 21.6741C15.7485 21.6352 16.26 21.5667 16.7662 21.4688C17.384 21.369 17.9887 21.2005 18.5691 20.9662C19.0917 20.7478 19.6692 20.4127 20.3034 19.9402C20.9176 19.4926 21.4524 18.9451 21.8855 18.3206C22.3073 17.7061 22.6636 16.9036 22.9448 15.9234C23.2261 14.9433 23.25 13.823 23.25 12.5939C23.25 11.0555 22.748 9.10547 21.5325 7.73438ZM18.248 19.597C16.8464 20.2622 14.7872 20.5312 12.0553 20.5312H11.9498C9.2175 20.5312 7.15828 20.2673 5.7825 19.597C4.40672 18.9267 3.70828 17.5603 3.70828 15.4988C3.70828 14.265 4.14 13.2647 4.98891 12.4988C5.36063 12.1706 5.8125 11.94 6.375 11.8031C6.9375 11.6663 7.44984 11.6625 7.93172 11.6761C8.40422 11.6962 9.06703 11.7877 9.90563 11.8538C10.7442 11.9198 11.377 12.0061 12.0052 12.0061C12.5925 12.0061 13.3711 11.9044 14.6217 11.8031C15.8723 11.7019 16.8066 11.6508 17.4089 11.752C18.0267 11.8538 18.5644 12.067 19.0214 12.4988C19.9102 13.3009 20.3555 14.3009 20.3573 15.4988C20.3522 17.5603 19.6439 18.9319 18.248 19.597Z" fill="#018A4A"/>
</g>
<path d="M35.888 17L32.336 5.32H35.04L37.856 15.176L37.248 14.872H38.88L38.24 15.176L40.848 5.32H43.472L40.16 17H35.888ZM44.822 20.472V18.296H46.646C46.9233 18.296 47.158 18.2587 47.35 18.184C47.542 18.12 47.6967 18.008 47.814 17.848C47.9313 17.688 48.0273 17.4693 48.102 17.192L50.262 8.232H52.694L50.246 17.704C50.0753 18.3867 49.8353 18.9307 49.526 19.336C49.2273 19.7413 48.822 20.0293 48.31 20.2C47.8087 20.3813 47.1687 20.472 46.39 20.472H44.822ZM47.574 16.808V14.808H49.43V16.808H47.574ZM46.518 16.808L43.83 8.232H46.406L48.95 16.808H46.518ZM59.435 17.288C58.7203 17.288 58.091 17.1387 57.547 16.84C57.003 16.5307 56.5763 16.088 56.267 15.512C55.9577 14.936 55.7923 14.232 55.771 13.4H56.075V17H54.043V5.32H56.603V11.256L55.995 12.024C56.027 11.1387 56.1923 10.3973 56.491 9.8C56.8003 9.192 57.2217 8.73867 57.755 8.44C58.2883 8.13067 58.8963 7.976 59.579 7.976C60.1763 7.976 60.715 8.088 61.195 8.312C61.6857 8.52533 62.1017 8.83467 62.443 9.24C62.7843 9.63467 63.0457 10.104 63.227 10.648C63.419 11.192 63.515 11.784 63.515 12.424V12.776C63.515 13.416 63.419 14.008 63.227 14.552C63.0457 15.096 62.7737 15.576 62.411 15.992C62.059 16.3973 61.6323 16.7173 61.131 16.952C60.6297 17.176 60.0643 17.288 59.435 17.288ZM58.763 15.144C59.2003 15.144 59.579 15.0373 59.899 14.824C60.2297 14.6107 60.4857 14.312 60.667 13.928C60.8483 13.5333 60.939 13.0907 60.939 12.6C60.939 12.0987 60.8483 11.6613 60.667 11.288C60.4857 10.9147 60.2297 10.6267 59.899 10.424C59.579 10.2107 59.2003 10.104 58.763 10.104C58.379 10.104 58.0163 10.1947 57.675 10.376C57.3337 10.5573 57.0563 10.8187 56.843 11.16C56.6403 11.4907 56.539 11.896 56.539 12.376V12.968C56.539 13.4267 56.6457 13.8213 56.859 14.152C57.083 14.472 57.3657 14.7173 57.707 14.888C58.0483 15.0587 58.4003 15.144 58.763 15.144ZM69.309 17.304C68.5623 17.304 67.901 17.176 67.325 16.92C66.7597 16.664 66.285 16.3227 65.901 15.896C65.5277 15.4587 65.2397 14.9733 65.037 14.44C64.845 13.896 64.749 13.3413 64.749 12.776V12.456C64.749 11.8693 64.845 11.3093 65.037 10.776C65.2397 10.232 65.5277 9.74667 65.901 9.32C66.2743 8.89333 66.7383 8.55733 67.293 8.312C67.8583 8.056 68.4983 7.928 69.213 7.928C70.1517 7.928 70.941 8.14133 71.581 8.568C72.2317 8.984 72.7277 9.53333 73.069 10.216C73.4103 10.888 73.581 11.624 73.581 12.424V13.288H65.821V11.832H72.029L71.197 12.504C71.197 11.9813 71.1223 11.5333 70.973 11.16C70.8237 10.7867 70.5997 10.504 70.301 10.312C70.013 10.1093 69.6503 10.008 69.213 10.008C68.765 10.008 68.3863 10.1093 68.077 10.312C67.7677 10.5147 67.533 10.8133 67.373 11.208C67.213 11.592 67.133 12.0667 67.133 12.632C67.133 13.1547 67.2077 13.6133 67.357 14.008C67.5063 14.392 67.741 14.6907 68.061 14.904C68.381 15.1173 68.797 15.224 69.309 15.224C69.7783 15.224 70.1623 15.1333 70.461 14.952C70.7597 14.7707 70.9623 14.5467 71.069 14.28H73.421C73.293 14.8667 73.0423 15.3893 72.669 15.848C72.2957 16.3067 71.8263 16.664 71.261 16.92C70.6957 17.176 70.045 17.304 69.309 17.304Z" fill="white"/>
<defs>
<clipPath id="clip0_2147_9">
<rect width="24" height="24" fill="white"/>
</clipPath>
</defs>
</svg>
